<?xml version="1.0" encoding="utf-8"?>
<!-- Generator: Adobe Illustrator 19.2.1, SVG Export Plug-In . SVG Version: 6.00 Build 0)  -->
<svg version="1.1" id="Layer_3" xmlns="http://www.w3.org/2000/svg" xmlns:xlink="http://www.w3.org/1999/xlink" x="0px" y="0px"
	 width="480px" height="103.6px" viewBox="0 0 480 103.6" style="enable-background:new 0 0 480 103.6;" xml:space="preserve">
<style type="text/css">
	.st0{fill:#419b5f;}
	.st1{fill:none;}
	.st2{fill:#39373A;}
	#small{
    display:none;
    }
    @media screen and (max-width: 200px){
    #big{
    display:none;
    }
    #small{
    display:block;
    }
    }
</style>
<g id="symbol">
	<path class="st0" d="M3.9,44.2L39.5,8.5V1.3h-0.2C33,1.5,29.1,1.8,26.4,2v4.7L26,7.2L4.6,28.5C4.3,32.7,4,38,3.9,44.2z"/>
	<path class="st0" d="M84.6,62.1c0,3.5,2.8,6.3,6.3,6.3s6.3-2.8,6.3-6.3c0-3.5-2.8-6.3-6.3-6.3C87.4,55.8,84.6,58.6,84.6,62.1z"/>
	<path class="st0" d="M35.9,51c0,3.5,2.8,6.3,6.3,6.3s6.3-2.8,6.3-6.3s-2.8-6.3-6.3-6.3S35.9,47.5,35.9,51z"/>
	<path class="st0" d="M59,1.1v101c18-0.2,25.5-1.3,25.5-1.3c9.5-0.4,16.2-6.8,17.2-17.9c0,0,1.6-13.9,1.6-31.2
		c0-16.7-1.6-31.2-1.6-31.2c-1-11.1-7.7-17.6-17.2-18c0,0-2.9-0.4-9.3-0.8v6.9l17,17l0.5,0.4v26.8c4.4,0.8,7.7,4.7,7.7,9.3
		c0,5.2-4.3,9.5-9.5,9.5s-9.5-4.3-9.5-9.5c0-4.7,3.5-8.7,8.1-9.4V27.3L72.1,9.8V1.5C68.6,1.3,64.2,1.2,59,1.1z M79.7,35.8
		c0,4.7-3.5,8.6-8,9.3v27.3l23.2,23.2l-2.2,2.2L69.1,74.3l-0.5-0.5V45.2c-4.4-0.8-7.8-4.7-7.8-9.3c0-5.2,4.3-9.5,9.5-9.5
		C75.5,26.4,79.7,30.6,79.7,35.8z"/>
	<path class="st0" d="M32.6,75.8c0-3.5-2.8-6.3-6.3-6.3S20,72.3,20,75.8s2.8,6.3,6.3,6.3C29.8,82.1,32.6,79.3,32.6,75.8z"/>
	<path class="st0" d="M3.7,51.6c0,16.7,1.6,31.2,1.6,31.2c0.5,5.6,2.5,10,5.5,13.1V58.2l0.4-0.5l29.9-29.8l2.7-2.7v16.6
		c4.5,0.8,7.9,4.7,7.9,9.3c0,5.2-4.3,9.5-9.5,9.5s-9.5-4.3-9.5-9.5c0-4.7,3.4-8.6,7.9-9.3v-8.9L14,59.5v38.9
		c2.4,1.4,5.3,2.2,8.5,2.4c0,0,3.7,0.6,12.2,1l-9.3-9.3L24.9,92v-6.9c-4.6-0.7-8.1-4.6-8.1-9.4c0-5.2,4.3-9.5,9.5-9.5
		s9.5,4.3,9.5,9.5c0,4.6-3.3,8.4-7.7,9.3v5.7L39.3,102h0.1c3.9,0.1,8.6,0.2,14.1,0.2h2.3V1.1c-0.8,0-1.5,0-2.3,0
		c-4.1,0-7.6,0-10.8,0.1v8.7l-0.5,0.4L3.8,48.8C3.8,49.7,3.7,50.6,3.7,51.6z"/>
	<path class="st0" d="M22.5,2.5C13,2.8,6.3,9.3,5.3,20.4c0,0-0.1,1.3-0.3,3.3L23.2,5.5V2.3C23,2.4,22.5,2.5,22.5,2.5z"/>
	<path class="st0" d="M63.9,35.8c0,3.5,2.8,6.3,6.3,6.3s6.3-2.8,6.3-6.3s-2.8-6.3-6.3-6.3C66.7,29.5,63.9,32.3,63.9,35.8z"/>
</g>
<g id="big">
	<path class="st1" d="M198.7,83.9c0.2,0.3,0.5,0.6,0.8,0.8c0.3,0.2,0.7,0.3,1.2,0.3c1.7,0,2.6-1.2,2.6-3.6c0-0.5-0.1-1-0.1-1.4
		c-0.1-0.5-0.3-0.8-0.4-1.2c-0.2-0.3-0.5-0.6-0.8-0.8c-0.3-0.2-0.7-0.3-1.2-0.3c-1.7,0-2.6,1.2-2.6,3.6c0,0.5,0,0.9,0.1,1.4
		C198.4,83.2,198.5,83.6,198.7,83.9z"/>
	<path class="st1" d="M177.1,11.8c-7.4,0-8.6,5.5-8.6,11.4c0,5.8,1.2,11.4,8.6,11.4c7.4,0,8.6-5.5,8.6-11.4
		C185.7,17.4,184.5,11.8,177.1,11.8z"/>
	<path class="st1" d="M246.6,61.1c0.5,0.1,0.9,0.1,1.3,0.1c0.8,0,1.4-0.1,1.8-0.5c0.4-0.3,0.6-0.8,0.6-1.3s-0.2-0.9-0.6-1.3
		c-0.4-0.3-0.9-0.5-1.7-0.5c-0.2,0-0.5,0-0.7,0c-0.3,0-0.5,0-0.7,0.1L246.6,61.1L246.6,61.1z"/>
	<path class="st1" d="M151.4,77.7c-0.7,0-1.3,0.2-1.8,0.6c-0.4,0.4-0.7,1.1-0.8,2h4.7c0-1-0.2-1.6-0.5-2
		C152.6,77.9,152.1,77.7,151.4,77.7z"/>
	<path class="st1" d="M214.1,60.2c0.2,0.3,0.5,0.6,0.8,0.8s0.7,0.3,1.2,0.3c1.7,0,2.6-1.2,2.6-3.6c0-0.5,0-1-0.1-1.4
		s-0.3-0.8-0.4-1.2c-0.2-0.3-0.5-0.6-0.8-0.8s-0.7-0.3-1.2-0.3c-1.7,0-2.6,1.2-2.6,3.7c0,0.5,0,0.9,0.1,1.4
		C213.8,59.5,213.9,59.9,214.1,60.2z"/>
	<path class="st1" d="M259.3,60.2c0.2,0.3,0.4,0.6,0.8,0.8c0.3,0.2,0.7,0.3,1.2,0.3c0.8,0,1.4-0.3,1.7-0.9c0.3-0.6,0.5-1.5,0.5-2.8
		c0-0.5,0-1-0.1-1.4s-0.2-0.8-0.4-1.2c-0.2-0.3-0.4-0.6-0.7-0.8c-0.3-0.2-0.7-0.3-1.1-0.3c-0.9,0-1.5,0.3-1.9,0.9
		c-0.4,0.6-0.6,1.5-0.6,2.8c0,0.5,0,1,0.1,1.4C259,59.5,259.1,59.9,259.3,60.2z"/>
	<path class="st1" d="M179,83.9c0.2,0.3,0.5,0.6,0.8,0.8c0.3,0.2,0.7,0.3,1.2,0.3c1.7,0,2.6-1.2,2.6-3.6c0-0.5,0-1-0.1-1.4
		c-0.1-0.5-0.2-0.8-0.4-1.2c-0.2-0.3-0.5-0.6-0.8-0.8c-0.3-0.2-0.7-0.3-1.2-0.3c-1.7,0-2.6,1.2-2.6,3.6c0,0.5,0,0.9,0.1,1.4
		C178.7,83.2,178.8,83.6,179,83.9z"/>
	<path class="st1" d="M280.3,54.6c-0.4-0.4-0.9-0.6-1.6-0.6c-0.8,0-1.3,0.2-1.8,0.6c-0.4,0.4-0.7,1.1-0.8,2h4.7
		C280.8,55.7,280.6,55,280.3,54.6z"/>
	<path class="st1" d="M287,54.5c-0.4,0.3-0.6,0.9-0.8,1.5v4.7c0.2,0.2,0.5,0.3,0.8,0.4c0.3,0.1,0.7,0.1,1.2,0.1c0.9,0,1.6-0.3,2.1-1
		s0.8-1.6,0.8-2.9c0-0.5,0-1-0.1-1.4s-0.2-0.8-0.4-1.1c-0.2-0.3-0.4-0.5-0.8-0.7c-0.3-0.2-0.7-0.3-1.2-0.3
		C287.9,54,287.3,54.2,287,54.5z"/>
	<path class="st1" d="M346.7,58.1c-0.4,0-0.8,0-1.1,0.1c-0.4,0-0.7,0.1-1,0.2c-0.3,0.1-0.5,0.3-0.7,0.5s-0.3,0.5-0.3,0.8
		c0,0.4,0.2,0.8,0.5,1.1s0.7,0.4,1.2,0.4c0.4,0,0.7,0,0.9-0.1c0.3-0.1,0.5-0.2,0.7-0.3c0.2-0.2,0.4-0.3,0.5-0.5s0.2-0.3,0.3-0.5
		v-1.6c-0.2,0-0.4,0-0.5,0C347,58.1,346.9,58.1,346.7,58.1z"/>
	<path class="st1" d="M306.7,61.1c0.5,0.1,0.9,0.1,1.3,0.1c0.8,0,1.4-0.1,1.7-0.5c0.3-0.3,0.5-0.8,0.5-1.3s-0.1-0.9-0.5-1.3
		c-0.3-0.3-0.9-0.5-1.6-0.5c-0.2,0-0.4,0-0.7,0c-0.3,0-0.5,0-0.7,0.1L306.7,61.1L306.7,61.1z"/>
	<polygon class="st2" points="310.5,41 334.4,41 334.4,33.9 318,33.9 318,26.5 332,26.5 332,19.6 318,19.6 318,12.7 334.4,12.7 
		334.4,5.6 310.5,5.6 	"/>
	<path class="st2" d="M177.1,4.7c-12,0-16.1,8.6-16.1,18.5c0,10,4.1,18.5,16.1,18.5s16.1-8.5,16.1-18.5
		C193.2,13.2,189.1,4.7,177.1,4.7z M177.1,34.6c-7.4,0-8.6-5.6-8.6-11.4c0-5.9,1.2-11.4,8.6-11.4c7.4,0,8.6,5.5,8.6,11.4
		C185.7,29.1,184.5,34.6,177.1,34.6z"/>
	<polygon class="st2" points="303.3,5.6 276.3,5.6 276.3,12.7 286,12.7 286,40.9 293.5,40.9 293.5,12.7 303.3,12.7 	"/>
	<polygon class="st2" points="372.6,5.6 363.7,5.6 357.1,16.5 350.5,5.6 341.6,5.6 352.3,22.5 340.7,40.9 349.6,40.9 357.1,28.5 
		364.6,40.9 373.5,40.9 361.9,22.5 	"/>
	<path class="st2" d="M203.5,29.8c-0.8,2.8-2.8,4.2-6,4.1v7.2c6.7,0.3,11.6-3.5,13.3-9.6c1.4-5.4,2.3-13.9,2.8-18.9h8.5v28.2h7.5
		V5.6h-22.8C205.8,13.5,205.5,22.2,203.5,29.8z"/>
	<polygon class="st2" points="239.9,5.6 239.9,40.9 247,40.9 261,19.1 261,40.9 268.5,40.9 268.5,5.6 261.4,5.6 247.4,27.3 
		247.4,5.6 	"/>
	<polygon class="st2" points="124.9,40.9 132.5,40.9 132.5,12.7 145,12.7 145,40.9 152.5,40.9 152.5,5.6 124.9,5.6 	"/>
	<polygon class="st2" points="124.9,62.4 125.8,62.4 132.3,53.4 133.1,51.9 133.1,51.9 133,53.4 133,62.4 134.6,62.4 134.6,49.1 
		133.7,49.1 127.3,58.2 126.4,59.7 126.4,59.7 126.5,58.2 126.5,49.1 124.9,49.1 	"/>
	<polygon class="st2" points="137.7,52.9 137.7,62.4 139.2,62.4 139.2,58.2 143.5,58.2 143.5,62.4 145,62.4 145,52.9 143.5,52.9 
		143.5,56.9 139.2,56.9 139.2,52.9 	"/>
	<path class="st2" d="M151.7,54c0.4,0,0.8,0.1,1.1,0.1c0.3,0.1,0.7,0.2,1,0.4l0.4-1.3c-0.3-0.2-0.7-0.3-1.1-0.4
		c-0.4-0.1-0.9-0.1-1.6-0.1c-1.3,0-2.3,0.4-3,1.3c-0.7,0.9-1.1,2.1-1.1,3.7c0,0.7,0.1,1.4,0.2,2c0.1,0.6,0.4,1.1,0.7,1.6
		c0.3,0.4,0.7,0.8,1.2,1s1.1,0.3,1.9,0.3c0.6,0,1.1-0.1,1.6-0.2c0.5-0.1,1-0.4,1.3-0.6l-0.5-1.2c-0.2,0.2-0.5,0.3-0.9,0.5
		c-0.4,0.1-0.8,0.2-1.2,0.2c-0.5,0-1-0.1-1.3-0.3c-0.4-0.2-0.7-0.5-0.9-0.8s-0.4-0.7-0.5-1.2c-0.1-0.4-0.1-0.9-0.1-1.4
		C149,55.2,149.9,54,151.7,54z"/>
	<path class="st2" d="M154.4,61.8L154.4,61.8L154.4,61.8z"/>
	<polygon class="st2" points="155,54.2 158,54.2 158,62.4 159.5,62.4 159.5,54.2 162.5,54.2 162.5,52.9 155,52.9 	"/>
	<polygon class="st2" points="165.5,52.9 164,52.9 164,62.4 164.9,62.4 169.2,56.8 170,55.6 170,55.6 170,56.8 170,62.4 171.5,62.4 
		171.5,52.9 170.6,52.9 166.3,58.6 165.6,59.8 165.5,59.8 165.5,58.7 	"/>
	<polygon class="st2" points="173,54.2 176,54.2 176,62.4 177.5,62.4 177.5,54.2 180.5,54.2 180.5,52.9 173,52.9 	"/>
	<path class="st2" d="M185.8,59l-0.4,1.9h-0.1l-0.5-1.8l-2.3-6.2h-1.7l3.8,9.5c-0.2,0.9-0.5,1.6-0.8,1.9c-0.3,0.4-0.7,0.6-1,0.6
		c-0.1,0-0.3,0-0.5-0.1l-0.3,1.3c0.3,0.1,0.7,0.2,1.1,0.2c0.4,0,0.8-0.1,1.1-0.4s0.6-0.6,0.9-1.1c0.3-0.5,0.5-1,0.7-1.6
		s0.4-1.2,0.6-1.8l2.8-8.5h-1.5L185.8,59z"/>
	<polygon class="st2" points="189.4,54.2 192.4,54.2 192.4,62.4 193.9,62.4 193.9,54.2 196.9,54.2 196.9,52.9 189.4,52.9 	"/>
	<polygon class="st2" points="203.4,52.9 203.4,62.4 205,62.4 205,58.1 205.8,58.1 209,62.4 210.9,62.4 207.7,58.1 206.7,57.3 
		207.5,56.7 210.5,52.9 208.8,52.9 205.8,56.9 205,57.2 205,52.9 	"/>
	<path class="st2" d="M214.3,62.3c0.5,0.2,1.1,0.3,1.8,0.3c1.3,0,2.4-0.4,3.1-1.3c0.7-0.9,1.1-2.1,1.1-3.7c0-0.7-0.1-1.4-0.3-2
		s-0.4-1.1-0.8-1.6c-0.3-0.4-0.8-0.8-1.3-1s-1.1-0.3-1.8-0.3c-1.3,0-2.4,0.4-3.1,1.3c-0.7,0.9-1.1,2.1-1.1,3.7c0,0.7,0.1,1.4,0.3,2
		s0.4,1.1,0.8,1.6C213.3,61.7,213.8,62,214.3,62.3z M216.1,54c0.5,0,0.9,0.1,1.2,0.3s0.6,0.5,0.8,0.8s0.3,0.7,0.4,1.2
		c0.1,0.4,0.1,0.9,0.1,1.4c0,2.4-0.9,3.7-2.6,3.6c-0.5,0-0.9-0.1-1.2-0.3s-0.6-0.5-0.8-0.8s-0.3-0.7-0.4-1.2
		c-0.1-0.4-0.1-0.9-0.1-1.4C213.6,55.2,214.4,54,216.1,54z"/>
	<polygon class="st2" points="228,57.1 227.4,58.3 227.4,58.3 226.8,57.2 224.2,52.9 222.7,52.9 222.7,62.4 224.1,62.4 224.1,56.7 
		223.9,55 224,55 224.6,56.4 227,60.1 227.5,60.1 229.8,56.4 230.5,55 230.6,55 230.5,56.8 230.5,62.4 232,62.4 232,52.9 
		230.5,52.9 	"/>
	<polygon class="st2" points="234.9,62.4 236.4,62.4 236.4,54.2 240.6,54.2 240.6,62.4 242.1,62.4 242.1,52.9 234.9,52.9 	"/>
	<path class="st2" d="M245,52.9v9.5c0.9,0.1,1.7,0.1,2.5,0.1c1.4,0,2.5-0.3,3.2-0.8s1-1.3,1-2.5c0-0.4-0.1-0.7-0.2-1.1
		c-0.1-0.3-0.3-0.7-0.6-0.9c-0.3-0.3-0.7-0.4-1.1-0.6c-0.5-0.2-1-0.2-1.7-0.2c-0.3,0-0.5,0-0.8,0s-0.6,0.1-0.9,0.1v-3.6H245z
		 M247.3,57.7c0.3,0,0.5,0,0.7,0c0.8,0,1.4,0.2,1.7,0.5c0.4,0.3,0.6,0.7,0.6,1.3s-0.2,1-0.6,1.3c-0.4,0.3-1,0.5-1.8,0.5
		c-0.4,0-0.9,0-1.3-0.1v-3.3C246.8,57.7,247,57.7,247.3,57.7z"/>
	<path class="st2" d="M253.8,52.9v9.5h1.5v-4.2h1.9c0,0.7,0.1,1.3,0.3,1.8c0.2,0.6,0.4,1,0.7,1.4c0.3,0.4,0.7,0.7,1.2,0.9
		s1.1,0.3,1.8,0.3c1.3,0,2.3-0.4,2.9-1.3c0.6-0.9,1-2.1,1-3.7c0-0.7-0.1-1.4-0.2-2s-0.4-1.1-0.7-1.6c-0.3-0.4-0.7-0.8-1.2-1
		s-1.1-0.3-1.8-0.3c-1.3,0-2.2,0.4-2.9,1.1c-0.7,0.7-1,1.8-1.1,3.1h-1.9v-4H253.8z M259.3,54.9c0.4-0.6,1-0.9,1.9-0.9
		c0.5,0,0.8,0.1,1.1,0.3c0.3,0.2,0.5,0.4,0.7,0.8c0.2,0.3,0.3,0.7,0.4,1.2c0.1,0.4,0.1,0.9,0.1,1.4c0,1.2-0.2,2.2-0.5,2.8
		c-0.4,0.6-0.9,0.9-1.7,0.9c-0.5,0-0.9-0.1-1.2-0.3c-0.3-0.2-0.6-0.5-0.8-0.8c-0.2-0.3-0.3-0.7-0.4-1.2c-0.1-0.4-0.1-0.9-0.1-1.4
		C258.8,56.4,259,55.5,259.3,54.9z"/>
	<polygon class="st2" points="270.6,62.4 270.6,54.2 273.5,54.2 273.5,52.9 266.1,52.9 266.1,54.2 269,54.2 269,62.4 	"/>
	<path class="st2" d="M274.5,57.7c0,0.8,0.1,1.4,0.3,2c0.2,0.6,0.4,1.1,0.8,1.6c0.3,0.4,0.8,0.8,1.3,1s1.2,0.3,1.9,0.3
		c0.6,0,1.2-0.1,1.8-0.3c0.6-0.2,1.1-0.4,1.4-0.7l-0.6-1.1c-0.2,0.2-0.5,0.4-1,0.5c-0.4,0.1-0.9,0.2-1.3,0.2c-0.6,0-1-0.1-1.4-0.2
		c-0.4-0.2-0.7-0.4-0.9-0.7c-0.2-0.3-0.4-0.7-0.5-1.1c-0.1-0.4-0.2-0.9-0.2-1.5h6.1c0.1-0.5,0.1-1,0.1-1.4c0-0.8-0.1-1.4-0.3-1.9
		c-0.2-0.5-0.5-0.9-0.8-1.1c-0.3-0.3-0.7-0.4-1.2-0.5c-0.4-0.1-0.9-0.1-1.3-0.1c-1.3,0-2.4,0.4-3.1,1.3
		C274.9,54.8,274.5,56,274.5,57.7z M276.9,54.6c0.5-0.4,1-0.6,1.8-0.6c0.7,0,1.2,0.2,1.6,0.6c0.4,0.4,0.5,1.1,0.5,2h-4.7
		C276.2,55.7,276.5,55,276.9,54.6z"/>
	<path class="st2" d="M287.2,53c-0.5,0.2-0.8,0.6-1.1,1H286l-0.3-1.1h-1v13.3h1.5v-3.9c0.3,0.1,0.6,0.2,0.9,0.3s0.6,0.1,1.1,0.1
		c0.7,0,1.2-0.1,1.8-0.4c0.5-0.2,1-0.6,1.4-1s0.7-1,0.9-1.6c0.2-0.6,0.3-1.4,0.3-2.2c0-1.7-0.3-2.9-0.9-3.7
		c-0.6-0.7-1.6-1.1-2.8-1.1C288.2,52.7,287.7,52.8,287.2,53z M290.4,55c0.2,0.3,0.3,0.7,0.4,1.1c0.1,0.4,0.1,0.9,0.1,1.4
		c0,1.3-0.3,2.2-0.8,2.9s-1.2,1-2.1,1c-0.5,0-0.9-0.1-1.2-0.1c-0.3-0.1-0.5-0.2-0.8-0.4V56c0.1-0.7,0.4-1.2,0.8-1.5s0.9-0.5,1.5-0.5
		c0.5,0,0.8,0.1,1.2,0.3C290,54.4,290.2,54.7,290.4,55z"/>
	<polygon class="st2" points="302.3,62.4 302.3,52.9 300.7,52.9 300.7,56.9 296.5,56.9 296.5,52.9 294.9,52.9 294.9,62.4 
		296.5,62.4 296.5,58.2 300.7,58.2 300.7,62.4 	"/>
	<rect x="313.2" y="52.9" class="st2" width="1.5" height="9.5"/>
	<path class="st2" d="M305.2,52.9v9.5c0.9,0.1,1.7,0.1,2.5,0.1c1.4,0,2.5-0.3,3.1-0.8s0.9-1.3,0.9-2.5c0-0.4,0-0.7-0.1-1.1
		c-0.1-0.3-0.3-0.7-0.6-0.9c-0.3-0.3-0.6-0.4-1-0.6c-0.4-0.2-1-0.2-1.6-0.2c-0.3,0-0.5,0-0.8,0s-0.6,0.1-0.9,0.1v-3.6H305.2z
		 M307.4,57.7c0.3,0,0.5,0,0.7,0c0.8,0,1.3,0.2,1.6,0.5c0.3,0.3,0.5,0.7,0.5,1.3s-0.2,1-0.5,1.3s-0.9,0.5-1.7,0.5
		c-0.4,0-0.9,0-1.3-0.1v-3.3C306.9,57.7,307.1,57.7,307.4,57.7z"/>
	<polygon class="st2" points="318.4,62.4 320.5,59.5 321.1,58.4 321.6,59.5 323.7,62.4 325.5,62.4 322.1,57.5 325.3,52.9 
		323.6,52.9 321.7,55.5 321.2,56.6 320.6,55.5 318.8,52.9 317,52.9 320.2,57.5 316.7,62.4 	"/>
	<polygon class="st2" points="339.8,62.4 339.8,52.9 338.3,52.9 338.3,56.9 334,56.9 334,52.9 332.5,52.9 332.5,62.4 334,62.4 
		334,58.2 338.3,58.2 338.3,62.4 	"/>
	<path class="st2" d="M347.2,56.9h-0.5c-0.7,0-1.3,0-1.9,0.2c-0.6,0.1-1.1,0.2-1.5,0.5c-0.4,0.2-0.7,0.5-1,0.9
		c-0.2,0.4-0.3,0.8-0.3,1.4c0,0.4,0.1,0.8,0.2,1.1s0.3,0.6,0.6,0.8c0.3,0.2,0.6,0.4,0.9,0.5c0.4,0.1,0.7,0.2,1.1,0.2s0.8,0,1.1-0.1
		c0.3-0.1,0.6-0.2,0.8-0.3c0.2-0.1,0.4-0.3,0.6-0.5s0.3-0.3,0.4-0.5h0.1l0.4,1.3h1.1c-0.1-0.4-0.2-0.7-0.2-1.2
		c0-0.4-0.1-0.9-0.1-1.3c0-0.6,0-1.3,0.1-2.1c0-0.7,0.1-1.4,0.1-2.2c0-0.3,0-0.7-0.1-1s-0.2-0.7-0.4-0.9c-0.2-0.3-0.5-0.5-0.9-0.7
		s-0.9-0.3-1.6-0.3s-1.4,0.1-2,0.2c-0.6,0.1-1.2,0.3-1.7,0.6l0.5,1.1c0.2-0.1,0.4-0.2,0.6-0.3s0.5-0.1,0.7-0.2
		c0.3-0.1,0.5-0.1,0.8-0.1c0.2,0,0.5,0,0.7,0c0.7,0,1.2,0.1,1.5,0.4c0.3,0.3,0.4,0.8,0.4,1.5c0,0.3,0,0.6-0.1,1
		C347.6,57,347.4,56.9,347.2,56.9z M347.8,59.7c-0.1,0.2-0.2,0.3-0.3,0.5c-0.1,0.2-0.3,0.3-0.5,0.5c-0.2,0.1-0.4,0.3-0.7,0.3
		c-0.3,0.1-0.6,0.1-0.9,0.1c-0.5,0-0.9-0.1-1.2-0.4c-0.3-0.3-0.5-0.7-0.5-1.1c0-0.3,0.1-0.6,0.3-0.8c0.2-0.2,0.4-0.4,0.7-0.5
		c0.3-0.1,0.6-0.2,1-0.2c0.4-0.1,0.8-0.1,1.1-0.1c0.2,0,0.4,0,0.5,0c0.2,0,0.4,0,0.5,0V59.7z"/>
	<path class="st2" d="M342.6,53.6L342.6,53.6L342.6,53.6z"/>
	<path class="st2" d="M352.9,64.9c-0.1,0-0.3,0-0.5-0.1l-0.3,1.3c0.3,0.1,0.7,0.2,1.1,0.2s0.8-0.1,1.1-0.4c0.3-0.3,0.6-0.6,0.9-1.1
		s0.5-1,0.7-1.6s0.4-1.2,0.6-1.8l2.8-8.5h-1.5L356,59l-0.4,1.9h-0.1l-0.5-1.8l-2.3-6.2H351l3.8,9.5c-0.2,0.9-0.5,1.6-0.8,1.9
		C353.6,64.7,353.3,64.9,352.9,64.9z"/>
	<polygon class="st2" points="361,52.9 361,62.4 362.5,62.4 362.5,58.1 363.4,58.1 366.6,62.4 368.5,62.4 365.3,58.1 364.3,57.3 
		365.1,56.7 368,52.9 366.4,52.9 363.3,56.9 362.5,57.2 362.5,52.9 	"/>
	<polygon class="st2" points="124.8,86.1 125.6,86.1 129.9,80.5 130.7,79.3 130.7,79.3 130.7,80.5 130.7,86.1 132.2,86.1 
		132.2,76.6 131.3,76.6 127,82.3 126.3,83.5 126.2,83.5 126.3,82.4 126.3,76.6 124.8,76.6 	"/>
	<polygon class="st2" points="138.8,77.9 141.8,77.9 141.8,86.1 143.3,86.1 143.3,77.9 146.3,77.9 146.3,76.6 138.8,76.6 	"/>
	<path class="st2" d="M153.9,77.1c-0.4-0.3-0.7-0.4-1.2-0.5c-0.4-0.1-0.9-0.1-1.3-0.1c-1.3,0-2.4,0.4-3.1,1.3
		c-0.7,0.8-1.1,2.1-1.1,3.7c0,0.7,0.1,1.4,0.3,2s0.4,1.1,0.8,1.6c0.3,0.4,0.8,0.8,1.3,1s1.2,0.4,1.9,0.4s1.3-0.1,1.8-0.3
		c0.6-0.2,1.1-0.4,1.4-0.7l-0.6-1.1c-0.2,0.2-0.5,0.4-1,0.5c-0.4,0.1-0.9,0.2-1.3,0.2c-0.6,0-1-0.1-1.4-0.2
		c-0.4-0.2-0.7-0.4-0.9-0.7c-0.2-0.3-0.4-0.7-0.5-1.1s-0.2-0.9-0.2-1.5h6.1c0.1-0.5,0.1-1,0.1-1.4c0-0.8-0.1-1.4-0.3-1.9
		C154.5,77.7,154.2,77.3,153.9,77.1z M148.8,80.3c0.1-0.9,0.4-1.6,0.8-2c0.5-0.4,1.1-0.6,1.8-0.6s1.2,0.2,1.6,0.6
		c0.4,0.4,0.5,1,0.5,2H148.8z"/>
	<polygon class="st2" points="158.1,86.1 160.2,83.2 160.8,82.1 161.4,83.2 163.4,86.1 165.2,86.1 161.8,81.2 165,76.6 163.3,76.6 
		161.4,79.2 160.9,80.3 160.4,79.2 158.5,76.6 156.7,76.6 159.9,81.2 156.5,86.1 	"/>
	<polygon class="st2" points="168.7,76.6 167.2,76.6 167.2,86.1 168.7,86.1 168.7,81.9 173,81.9 173,86.1 174.5,86.1 174.5,76.6 
		173,76.6 173,80.6 168.7,80.6 	"/>
	<path class="st2" d="M176.9,81.4c0,0.7,0.1,1.4,0.2,2c0.2,0.6,0.4,1.1,0.8,1.6c0.3,0.4,0.8,0.8,1.3,1s1.1,0.4,1.8,0.4
		c1.3,0,2.4-0.4,3.1-1.3c0.7-0.8,1.1-2.1,1.1-3.7c0-0.8-0.1-1.4-0.2-2c-0.2-0.6-0.4-1.1-0.8-1.6c-0.4-0.4-0.8-0.8-1.3-1
		s-1.1-0.3-1.8-0.3c-1.3,0-2.4,0.4-3.1,1.3C177.2,78.5,176.9,79.8,176.9,81.4z M181,77.7c0.5,0,0.9,0.1,1.2,0.3
		c0.3,0.2,0.6,0.5,0.8,0.8s0.4,0.7,0.4,1.2c0.1,0.4,0.1,0.9,0.1,1.4c0,2.4-0.9,3.7-2.6,3.6c-0.5,0-0.9-0.1-1.2-0.3
		c-0.3-0.2-0.6-0.5-0.8-0.8s-0.4-0.7-0.4-1.2c-0.1-0.4-0.1-0.9-0.1-1.4C178.4,78.9,179.3,77.7,181,77.7z"/>
	<path class="st2" d="M194.2,86.1v-9.5h-5.7c0,1.7-0.1,3.1-0.2,4.1c-0.1,1.1-0.2,1.9-0.4,2.5s-0.3,1-0.5,1.2s-0.4,0.3-0.7,0.3
		c-0.2,0-0.4,0-0.5-0.1L186,86c0.1,0.1,0.3,0.1,0.5,0.1s0.4,0,0.6,0c0.4,0,0.7-0.1,1-0.4s0.5-0.6,0.7-1s0.4-0.9,0.5-1.5
		s0.2-1.2,0.3-1.8c0.1-0.6,0.1-1.2,0.2-1.8c0-0.6,0.1-1.2,0.1-1.7h2.8v8.2C192.7,86.1,194.2,86.1,194.2,86.1z"/>
	<path class="st2" d="M196.8,83.4c0.2,0.6,0.4,1.1,0.8,1.6c0.3,0.4,0.8,0.8,1.3,1s1.1,0.4,1.8,0.4c1.3,0,2.4-0.4,3.1-1.3
		c0.7-0.8,1.1-2.1,1.1-3.7c0-0.8-0.1-1.4-0.3-2s-0.4-1.1-0.8-1.6c-0.3-0.4-0.8-0.8-1.3-1s-1.1-0.3-1.8-0.3c-1.3,0-2.4,0.4-3.1,1.3
		c-0.7,0.9-1.1,2.1-1.1,3.7C196.6,82.1,196.7,82.8,196.8,83.4z M200.7,77.7c0.5,0,0.9,0.1,1.2,0.3c0.3,0.2,0.6,0.5,0.8,0.8
		s0.4,0.7,0.4,1.2c0.1,0.4,0.1,0.9,0.1,1.4c0,2.4-0.9,3.7-2.6,3.6c-0.5,0-0.9-0.1-1.2-0.3c-0.3-0.2-0.6-0.5-0.8-0.8
		s-0.3-0.7-0.4-1.2c-0.1-0.4-0.1-0.9-0.1-1.4C198.2,78.9,199,77.7,200.7,77.7z"/>
	<polygon class="st2" points="207.2,86.1 208.8,86.1 208.8,77.9 212.8,77.9 212.8,76.6 207.2,76.6 	"/>
	<polygon class="st2" points="220.2,86.1 221.7,86.1 221.7,76.6 220.8,76.6 216.5,82.3 215.8,83.5 215.7,83.5 215.8,82.4 
		215.8,76.6 214.3,76.6 214.3,86.1 215.1,86.1 219.4,80.5 220.2,79.3 220.2,79.3 220.2,80.5 	"/>
	<polygon class="st2" points="226.9,82.3 226.2,83.5 226.1,83.5 226.1,82.4 226.1,76.6 224.6,76.6 224.6,86.1 225.5,86.1 
		229.8,80.5 230.5,79.3 230.6,79.3 230.5,80.5 230.5,86.1 232.1,86.1 232.1,76.6 231.2,76.6 	"/>
	<path class="st2" d="M227.5,75.3c0.3,0.1,0.7,0.1,1,0.1c0.8,0,1.4-0.2,1.9-0.6s0.9-1,1-1.7l-1.1-0.4c-0.1,0.5-0.3,0.9-0.7,1.2
		c-0.3,0.2-0.7,0.4-1.1,0.4c-0.4,0-0.8-0.1-1.1-0.3c-0.3-0.2-0.5-0.6-0.7-1.2l-1.3,0.5c0.1,0.4,0.2,0.7,0.4,1s0.4,0.5,0.7,0.7
		C226.9,75.1,227.2,75.2,227.5,75.3z"/>
</g>
<g id="small">
	<polygon class="st2" points="160.9,48.3 161.8,39 161.2,39 156.4,48.6 129.7,88 119.2,88 119.2,16.3 133.2,16.3 133.2,55.3 
		132.2,65 132.8,65 137.8,55 164.5,16.3 174.9,16.3 174.9,88 160.9,88 	"/>
	<polygon class="st2" points="205,57.4 201.4,57.4 201.4,88 187.3,88 187.3,16.3 201.4,16.3 201.4,48.1 204.6,46.6 224.4,16.3 
		240.3,16.3 219.5,46.4 213.9,50.3 219.7,54.3 243.5,88 226.2,88 	"/>
	<polygon class="st2" points="291,58 264.8,58 264.8,88 250.8,88 250.8,16.3 264.8,16.3 264.8,45.5 291,45.5 291,16.3 305,16.3 
		305,88 291,88 	"/>
	<polygon class="st2" points="368.3,28.8 347.4,28.8 347.4,88 333.4,88 333.4,28.8 312.4,28.8 312.4,16.3 368.3,16.3 	"/>
</g>
</svg>
